<mxfile host="app.diagrams.net" modified="2023-07-09T03:50:35.241Z" agent="Mozilla/5.0 (Macintosh; Intel Mac OS X 10_15_7) AppleWebKit/537.36 (KHTML, like Gecko) Chrome/114.0.0.0 Safari/537.36" version="21.6.1" etag="LCPvWFUg8ry7HAIRF7Nl" type="github">
  <diagram name="페이지-1" id="Bbv7YNhPLpcVmnhn9nwk">
    <mxGraphModel>
      <root>
        <mxCell id="0" />
        <mxCell id="1" parent="0" />
      </root>
    </mxGraphModel>
  </diagram>
</mxfile>
